<?xml version="1.0" encoding="UTF-8"?>
<svg id="Layer_2" data-name="Layer 2" xmlns="http://www.w3.org/2000/svg" viewBox="0 0 297.64 322">
  <defs>
    <style>
      .cls-1 {
        fill: #fff;
      }
    </style>
  </defs>
  <g id="Layer_1-2" data-name="Layer 1">
    <g>
      <path class="cls-1" d="M21.27,138.16V42.38H7.87c-3.68,0-5.86-2.2-5.86-5.93v-5.09c0-3.73,2.18-5.93,5.86-5.93h45.22c3.69,0,5.86,2.2,5.86,5.93v5.09c0,3.73-2.18,5.93-5.86,5.93h-13.4v95.78c0,3.73-2.18,5.93-5.86,5.93h-6.7c-3.69,0-5.86-2.2-5.86-5.93Z"/>
      <path class="cls-1" d="M72.02,138.16V31.36c0-3.73,2.18-5.93,5.86-5.93h6.7c3.68,0,5.86,2.2,5.86,5.93v42.38h19.76V31.36c0-3.73,2.18-5.93,5.86-5.93h6.7c3.68,0,5.86,2.2,5.86,5.93v106.8c0,3.73-2.18,5.93-5.86,5.93h-6.7c-3.69,0-5.86-2.2-5.86-5.93v-47.47h-19.76v47.47c0,3.73-2.18,5.93-5.86,5.93h-6.7c-3.68,0-5.86-2.2-5.86-5.93Z"/>
      <path class="cls-1" d="M146.56,138.16V31.36c0-3.73,2.18-5.93,5.86-5.93h38.52c3.69,0,5.86,2.2,5.86,5.93v5.09c0,3.73-2.18,5.93-5.86,5.93h-25.96v31.36h19.43c3.69,0,5.86,2.2,5.86,5.93v5.09c0,3.73-2.18,5.93-5.86,5.93h-19.43v36.45h25.96c3.69,0,5.86,2.2,5.86,5.93v5.09c0,3.73-2.18,5.93-5.86,5.93h-38.52c-3.69,0-5.86-2.2-5.86-5.93Z"/>
      <path class="cls-1" d="M13.73,282.5L3.02,177.06l-.17-2.2c0-3.56,2.01-5.42,5.53-5.42h6.03c3.68,0,5.69,1.86,6.03,5.59l7.87,85.61h.33l8.38-85.61c.33-3.73,2.34-5.59,6.03-5.59h9.04c3.68,0,5.69,1.86,6.03,5.59l8.37,85.61h.33l7.87-85.61c.33-3.73,2.34-5.59,6.03-5.59h4.19c3.52,0,5.53,1.86,5.53,5.42l-.17,2.2-10.72,105.44c-.33,3.56-2.35,5.59-6.03,5.59h-11.89c-3.69,0-5.86-2.03-6.2-5.59l-7.87-74.42h-.33l-7.87,74.42c-.33,3.56-2.51,5.59-6.2,5.59h-13.4c-3.69,0-5.69-2.03-6.03-5.59Z"/>
      <path class="cls-1" d="M97.65,283.01c0-.34,0-.51.17-1.53l17.59-106.63c.5-3.56,2.68-5.42,6.2-5.42h14.24c3.52,0,5.69,1.86,6.2,5.42l17.59,106.63c.17,1.02.17,1.19.17,1.53,0,3.22-2.01,5.09-5.53,5.09h-6.53c-3.52,0-5.86-1.7-6.37-5.42l-2.51-18.14v.34h-21.61l-2.51,17.8c-.5,3.73-2.85,5.42-6.37,5.42h-5.19c-3.52,0-5.53-1.87-5.53-5.09ZM136.68,248.77l-8.54-58.66h-.33l-8.37,58.66h17.25Z"/>
      <path class="cls-1" d="M173.36,282.16v-106.8c0-3.73,2.18-5.93,5.86-5.93h6.7c3.68,0,5.86,2.2,5.86,5.93v95.78h24.45c3.68,0,5.86,2.2,5.86,5.93v5.09c0,3.73-2.18,5.93-5.86,5.93h-37.02c-3.68,0-5.86-2.2-5.86-5.93Z"/>
      <path class="cls-1" d="M235.17,282.16v-106.8c0-3.73,2.18-5.93,5.86-5.93h6.7c3.68,0,5.86,2.2,5.86,5.93v44.08l21.94-45.6c1.51-3.05,3.69-4.41,6.87-4.41h5.69c3.35,0,5.19,1.53,5.19,3.9,0,.85-.17,1.7-.84,3.05l-18.93,36.62,20.6,67.81c.33,1.02.5,2.04.5,2.88,0,2.88-1.84,4.41-5.19,4.41h-7.2c-3.35,0-5.7-1.7-6.7-4.92l-14.57-47.98-7.37,15.09v31.87c0,3.73-2.18,5.93-5.86,5.93h-6.7c-3.68,0-5.86-2.2-5.86-5.93Z"/>
    </g>
  </g>
</svg>