<?xml version="1.0" encoding="UTF-8"?>
<svg id="Layer_2" data-name="Layer 2" xmlns="http://www.w3.org/2000/svg" viewBox="0 0 78.48 126.87">
  <defs>
    <style>
      .cls-1 {
        fill: #fff;
      }
    </style>
  </defs>
  <g id="Layer_1-2" data-name="Layer 1">
    <g>
      <path class="cls-1" d="M39.5,126.87l-11.99-19.27-6.87-.43,4.9-8.66-10.18.54,4.96-8.87-10.17.55,5.09-9.1-3.95.07L0,63.56,39.5,0l38.97,63.33-38.98,63.54ZM25.28,104.65l3.84.24,10.36,16.64,35.7-58.2L39.49,5.33,3.3,63.56l9.52,15.29,7.24-.13-4.99,8.92,10.17-.55-4.97,8.88,10.21-.54-5.21,9.21Z"/>
      <polygon class="cls-1" points="48.44 80.94 45.39 80.93 39.6 51.11 33.76 80.91 30.71 80.91 25.37 45.93 28.56 45.94 32.24 75.7 37.94 45.95 41.23 45.96 46.93 75.73 50.66 45.98 53.8 45.98 48.44 80.94"/>
    </g>
  </g>
</svg>